<svg id="canvas" width="720.823" height="154.994" viewBox="203.418 224.004 720.823 154.994" preserveAspectRatio="xMidYMid meet" class="h-full w-full max-w-4xl text-primary transition-opacity duration-300 opacity-100" xmlns="http://www.w3.org/2000/svg"><g id="canvas-strokes"><path d="M 207.84,306.09 C 209.00 305.78, 210.26 305.07, 212.36 303.18 C 214.47 301.29, 215.44 299.72, 218.37 296.64 C 221.30 293.55, 223.21 291.53, 227.01 287.77 C 230.80 284.01, 232.98 281.94, 237.34 277.84 C 241.71 273.74, 244.12 271.49, 248.83 267.25 C 253.55 263.00, 256.15 260.72, 260.91 256.61 C 265.66 252.50, 268.21 250.35, 272.59 246.69 C 276.97 243.03, 279.14 241.14, 282.80 238.30 C 286.47 235.47, 288.37 234.34, 290.93 232.52 C 293.48 230.70, 294.56 229.83, 295.58 229.22 C 296.60 228.60, 296.39 228.34, 296.04 229.44 C 295.70 230.54, 295.12 231.55, 293.86 234.70 C 292.60 237.86, 291.99 240.22, 289.74 245.23 C 287.49 250.24, 285.92 253.41, 282.61 259.76 C 279.30 266.10, 277.22 269.75, 273.18 276.97 C 269.15 284.18, 266.80 288.20, 262.44 295.82 C 258.08 303.44, 255.67 307.56, 251.37 315.05 C 247.07 322.54, 244.84 326.41, 240.93 333.26 C 237.03 340.11, 235.10 343.55, 231.84 349.31 C 228.58 355.07, 227.05 357.78, 224.64 362.06 C 222.23 366.34, 221.09 368.11, 219.78 370.72 C 218.47 373.32, 218.24 374.10, 218.09 375.08 C 217.95 376.07, 218.23 376.26, 219.04 375.65 C 219.85 375.04, 220.62 374.53, 222.15 372.04 C 223.69 369.55, 224.45 367.54, 226.71 363.18 C 228.98 358.81, 230.35 356.04, 233.49 350.22 C 236.62 344.39, 238.52 340.95, 242.37 334.07 C 246.22 327.20, 248.44 323.32, 252.74 315.83 C 257.03 308.34, 259.44 304.22, 263.83 296.62 C 268.23 289.02, 270.59 285.01, 274.72 277.84 C 278.86 270.67, 280.98 267.05, 284.50 260.78 C 288.03 254.51, 289.76 251.45, 292.35 246.50 C 294.94 241.55, 296.24 239.48, 297.45 236.04 C 298.65 232.61, 298.84 231.14, 298.37 229.33 C 297.89 227.52, 296.93 226.94, 295.06 227.01 C 293.18 227.08, 291.77 227.84, 288.99 229.69 C 286.20 231.53, 284.71 233.19, 281.13 236.24 C 277.55 239.29, 275.43 241.19, 271.10 244.94 C 266.77 248.68, 264.23 250.84, 259.49 254.97 C 254.74 259.11, 252.13 261.39, 247.37 265.61 C 242.62 269.83, 240.19 272.06, 235.72 276.07 C 231.25 280.09, 229.00 282.08, 225.03 285.69 C 221.07 289.31, 219.01 291.23, 215.90 294.15 C 212.79 297.07, 211.35 298.19, 209.47 300.31 C 207.60 302.43, 206.85 303.60, 206.52 304.75 C 206.19 305.91, 206.67 306.41, 207.84 306.09" style="stroke: black; fill: black; --darkreader-inline-stroke: var(--darkreader-text-000000, #ffffff); --darkreader-inline-fill: var(--darkreader-text-000000, #ffffff);" data-darkreader-inline-stroke="" data-darkreader-inline-fill=""/><path d="M 232.27,316.20 C 232.53 316.75, 232.56 316.96, 233.76 317.50 C 234.95 318.04, 235.79 318.65, 238.25 318.92 C 240.71 319.19, 242.37 319.05, 246.04 318.85 C 249.72 318.65, 251.99 318.51, 256.63 317.91 C 261.27 317.32, 263.95 316.99, 269.23 315.87 C 274.51 314.75, 277.41 313.97, 283.04 312.29 C 288.67 310.62, 291.70 309.62, 297.37 307.51 C 303.04 305.40, 306.01 304.17, 311.40 301.72 C 316.79 299.27, 319.52 297.89, 324.31 295.26 C 329.09 292.62, 331.42 291.12, 335.33 288.55 C 339.24 285.99, 341.11 284.66, 343.85 282.43 C 346.60 280.20, 347.80 279.15, 349.06 277.41 C 350.32 275.67, 350.41 274.71, 350.15 273.71 C 349.89 272.71, 349.09 272.26, 347.75 272.41 C 346.42 272.56, 345.19 272.96, 343.46 274.46 C 341.74 275.95, 340.73 277.25, 339.13 279.89 C 337.53 282.52, 336.85 284.30, 335.47 287.64 C 334.09 290.97, 333.34 292.86, 332.23 296.57 C 331.13 300.27, 330.65 302.29, 329.95 306.17 C 329.24 310.06, 329.00 312.10, 328.70 315.99 C 328.39 319.89, 328.42 321.88, 328.43 325.64 C 328.44 329.40, 328.60 331.31, 328.74 334.79 C 328.88 338.26, 329.02 340.02, 329.13 343.03 C 329.23 346.04, 329.36 347.46, 329.25 349.84 C 329.14 352.22, 329.13 353.25, 328.60 354.95 C 328.07 356.65, 327.72 357.27, 326.60 358.35 C 325.49 359.43, 324.76 359.75, 323.02 360.33 C 321.28 360.91, 320.13 361.05, 317.88 361.24 C 315.64 361.43, 314.22 361.37, 311.78 361.27 C 309.34 361.16, 307.91 361.03, 305.68 360.72 C 303.45 360.42, 302.31 360.11, 300.65 359.74 C 298.98 359.37, 298.26 359.07, 297.35 358.87 C 296.45 358.66, 296.08 358.71, 296.11 358.71 C 296.15 358.71, 296.37 358.96, 297.52 358.87 C 298.67 358.78, 299.57 358.80, 301.86 358.27 C 304.14 357.74, 305.56 357.13, 308.95 356.21 C 312.35 355.28, 314.46 354.79, 318.83 353.65 C 323.19 352.51, 325.72 351.92, 330.79 350.51 C 335.86 349.09, 338.68 348.27, 344.16 346.58 C 349.65 344.88, 352.64 343.95, 358.22 342.04 C 363.80 340.13, 366.69 339.04, 372.04 337.03 C 377.38 335.03, 380.11 333.92, 384.94 332.02 C 389.78 330.11, 392.17 329.13, 396.22 327.51 C 400.26 325.88, 402.20 325.19, 405.18 323.89 C 408.16 322.59, 409.44 322.09, 411.13 321.01 C 412.82 319.93, 413.24 319.43, 413.64 318.50 C 414.04 317.58, 413.88 317.07, 413.12 316.39 C 412.36 315.70, 411.56 315.18, 409.84 315.08 C 408.12 314.98, 406.88 315.15, 404.51 315.88 C 402.14 316.61, 400.76 317.33, 398.00 318.73 C 395.24 320.14, 393.68 321.05, 390.72 322.92 C 387.76 324.80, 386.04 325.92, 383.19 328.10 C 380.35 330.28, 378.81 331.51, 376.50 333.83 C 374.19 336.14, 373.02 337.38, 371.64 339.68 C 370.27 341.98, 369.78 343.26, 369.64 345.32 C 369.50 347.38, 369.80 348.52, 370.93 349.99 C 372.06 351.46, 373.08 352.15, 375.28 352.67 C 377.48 353.19, 379.01 353.28, 381.95 352.60 C 384.90 351.92, 386.58 350.96, 390.02 349.26 C 393.46 347.57, 395.43 346.39, 399.17 344.11 C 402.90 341.83, 405.03 340.37, 408.69 337.85 C 412.34 335.34, 414.69 333.81, 417.44 331.52 C 420.19 329.22, 421.50 327.88, 422.44 326.37 C 423.37 324.87, 423.01 324.18, 422.11 323.99 C 421.21 323.79, 419.89 324.05, 417.93 325.40 C 415.97 326.74, 414.28 328.18, 412.31 330.71 C 410.34 333.23, 409.09 335.19, 408.08 338.03 C 407.07 340.86, 406.85 342.51, 407.26 344.86 C 407.66 347.22, 408.20 348.41, 410.13 349.81 C 412.06 351.20, 413.60 351.80, 416.91 351.84 C 420.22 351.87, 422.26 351.18, 426.69 349.99 C 431.12 348.80, 433.76 347.82, 439.05 345.90 C 444.34 343.99, 447.42 342.71, 453.14 340.42 C 458.87 338.13, 462.07 336.71, 467.67 334.46 C 473.27 332.21, 476.28 330.97, 481.16 329.16 C 486.03 327.35, 488.47 326.59, 492.04 325.39 C 495.62 324.20, 497.18 323.96, 499.04 323.18 C 500.91 322.41, 501.27 321.99, 501.37 321.52 C 501.48 321.05, 500.88 320.74, 499.56 320.83 C 498.24 320.91, 496.99 320.99, 494.78 321.96 C 492.57 322.94, 491.19 323.94, 488.49 325.69 C 485.79 327.45, 484.20 328.61, 481.29 330.74 C 478.37 332.88, 476.69 334.12, 473.92 336.37 C 471.16 338.63, 469.60 339.78, 467.46 342.03 C 465.33 344.29, 464.28 345.51, 463.25 347.65 C 462.21 349.78, 461.96 350.98, 462.28 352.69 C 462.60 354.41, 463.19 355.36, 464.85 356.23 C 466.51 357.10, 467.85 357.54, 470.57 357.04 C 473.28 356.54, 474.89 355.65, 478.42 353.73 C 481.95 351.81, 483.93 350.44, 488.20 347.43 C 492.48 344.42, 494.96 342.55, 499.80 338.66 C 504.64 334.76, 507.38 332.48, 512.41 327.96 C 517.44 323.43, 520.09 320.80, 524.93 316.03 C 529.76 311.25, 532.30 308.65, 536.60 304.07 C 540.90 299.49, 543.02 297.14, 546.44 293.12 C 549.87 289.11, 551.48 287.18, 553.71 283.98 C 555.95 280.78, 557.11 279.22, 557.64 277.13 C 558.16 275.04, 557.69 273.91, 556.35 273.53 C 555.02 273.15, 553.46 273.33, 550.97 275.23 C 548.48 277.14, 547.12 279.17, 543.92 283.06 C 540.72 286.95, 538.65 289.63, 534.98 294.68 C 531.32 299.74, 529.13 302.86, 525.60 308.33 C 522.08 313.80, 520.19 316.81, 517.36 322.04 C 514.54 327.27, 513.19 329.93, 511.50 334.47 C 509.80 339.00, 509.07 341.16, 508.90 344.70 C 508.73 348.24, 509.14 349.87, 510.65 352.16 C 512.15 354.44, 513.55 355.43, 516.43 356.11 C 519.31 356.79, 521.25 356.53, 525.04 355.57 C 528.83 354.61, 531.02 353.52, 535.40 351.30 C 539.78 349.09, 542.24 347.48, 546.92 344.49 C 551.60 341.51, 554.26 339.56, 558.81 336.37 C 563.35 333.18, 566.14 331.21, 569.66 328.54 C 573.18 325.88, 575.00 324.58, 576.40 323.03 C 577.81 321.48, 577.55 320.82, 576.68 320.80 C 575.81 320.78, 574.25 321.18, 572.06 322.93 C 569.87 324.68, 568.18 326.61, 565.72 329.54 C 563.26 332.47, 561.69 334.52, 559.77 337.59 C 557.85 340.67, 556.81 342.23, 556.13 344.91 C 555.45 347.59, 555.53 348.99, 556.39 350.99 C 557.25 352.99, 558.18 353.98, 560.43 354.91 C 562.67 355.84, 564.31 356.02, 567.61 355.63 C 570.91 355.24, 572.89 354.42, 576.92 352.96 C 580.96 351.49, 583.38 350.37, 587.79 348.31 C 592.20 346.25, 595.00 344.64, 598.98 342.67 C 602.97 340.70, 605.28 339.80, 607.70 338.46 C 610.11 337.13, 610.69 336.32, 611.06 335.99 C 611.42 335.65, 610.78 335.80, 609.53 336.78 C 608.27 337.75, 606.61 338.74, 604.78 340.86 C 602.96 342.97, 601.53 344.75, 600.40 347.36 C 599.28 349.97, 598.93 351.70, 599.17 353.91 C 599.41 356.12, 599.88 357.20, 601.58 358.41 C 603.28 359.63, 604.61 360.33, 607.68 359.98 C 610.75 359.63, 612.59 358.65, 616.92 356.66 C 621.24 354.68, 623.79 353.29, 629.29 350.06 C 634.78 346.83, 638.01 344.79, 644.39 340.52 C 650.77 336.25, 654.44 333.66, 661.18 328.73 C 667.91 323.79, 671.58 320.98, 678.08 315.84 C 684.59 310.69, 688.04 307.89, 693.71 303.00 C 699.38 298.12, 702.17 295.60, 706.43 291.41 C 710.69 287.21, 712.65 285.29, 715.01 282.02 C 717.37 278.75, 718.19 277.24, 718.24 275.04 C 718.28 272.84, 717.40 271.58, 715.22 271.01 C 713.04 270.45, 711.13 270.68, 707.33 272.21 C 703.52 273.75, 701.11 275.30, 696.19 278.69 C 691.27 282.08, 688.20 284.43, 682.71 289.17 C 677.23 293.90, 674.01 296.88, 668.75 302.38 C 663.49 307.88, 660.69 311.08, 656.43 316.68 C 652.17 322.28, 650.13 325.33, 647.44 330.38 C 644.76 335.43, 643.71 337.86, 642.98 341.93 C 642.25 346.01, 642.28 348.03, 643.77 350.75 C 645.26 353.47, 646.94 354.67, 650.43 355.53 C 653.91 356.38, 656.29 356.11, 661.19 355.04 C 666.10 353.97, 668.89 352.90, 674.93 350.19 C 680.98 347.48, 684.50 345.57, 691.43 341.49 C 698.36 337.40, 702.29 334.83, 709.59 329.77 C 716.88 324.71, 720.85 321.70, 727.92 316.19 C 734.98 310.68, 738.74 307.60, 744.91 302.21 C 751.08 296.83, 754.09 293.98, 758.76 289.27 C 763.43 284.56, 765.53 282.37, 768.27 278.67 C 771.00 274.97, 772.08 273.36, 772.44 270.78 C 772.79 268.20, 772.04 266.79, 770.03 265.78 C 768.03 264.77, 766.19 264.64, 762.42 265.72 C 758.66 266.80, 756.24 268.13, 751.22 271.16 C 746.20 274.19, 743.11 276.32, 737.31 280.87 C 731.52 285.41, 728.10 288.29, 722.24 293.88 C 716.37 299.47, 713.12 302.82, 707.98 308.80 C 702.83 314.78, 700.24 318.08, 696.51 323.77 C 692.77 329.45, 691.20 332.30, 689.31 337.22 C 687.42 342.14, 686.87 344.46, 687.06 348.36 C 687.25 352.25, 687.90 354.21, 690.26 356.69 C 692.61 359.17, 694.65 359.97, 698.83 360.77 C 703.00 361.58, 705.70 361.37, 711.12 360.71 C 716.54 360.05, 719.74 359.21, 725.93 357.48 C 732.12 355.75, 735.65 354.41, 742.05 352.06 C 748.44 349.72, 751.97 348.18, 757.91 345.74 C 763.84 343.31, 766.91 341.92, 771.72 339.89 C 776.53 337.85, 779.21 337.12, 781.94 335.56 C 784.68 333.99, 785.47 332.95, 785.40 332.06 C 785.33 331.16, 784.08 330.58, 781.60 331.08 C 779.13 331.59, 776.98 332.67, 773.01 334.59 C 769.04 336.51, 766.20 338.07, 761.75 340.68 C 757.29 343.29, 754.60 345.01, 750.75 347.62 C 746.90 350.24, 744.81 351.44, 742.51 353.75 C 740.22 356.06, 739.57 357.37, 739.28 359.18 C 739.00 360.98, 739.52 361.90, 741.09 362.78 C 742.65 363.66, 744.16 364.06, 747.09 363.58 C 750.02 363.10, 751.88 362.01, 755.72 360.37 C 759.55 358.73, 761.91 357.53, 766.25 355.39 C 770.59 353.24, 773.20 351.81, 777.42 349.64 C 781.63 347.46, 784.25 346.23, 787.32 344.50 C 790.39 342.76, 791.73 341.86, 792.77 340.97 C 793.80 340.07, 793.40 339.72, 792.52 340.03 C 791.64 340.34, 790.25 340.93, 788.37 342.50 C 786.48 344.07, 784.61 345.42, 783.09 347.86 C 781.57 350.31, 780.91 352.31, 780.77 354.73 C 780.64 357.14, 780.93 358.50, 782.43 359.95 C 783.93 361.40, 785.19 362.14, 788.27 361.97 C 791.36 361.80, 793.30 360.92, 797.85 359.12 C 802.39 357.31, 805.13 356.00, 810.99 352.93 C 816.86 349.85, 820.34 347.86, 827.18 343.74 C 834.02 339.62, 837.94 337.13, 845.20 332.33 C 852.47 327.53, 856.53 324.78, 863.52 319.73 C 870.51 314.68, 874.16 311.89, 880.15 307.10 C 886.14 302.31, 889.07 299.81, 893.47 295.76 C 897.88 291.71, 900.00 289.93, 902.17 286.85 C 904.34 283.76, 904.81 282.22, 904.31 280.34 C 903.81 278.45, 902.50 277.38, 899.67 277.44 C 896.84 277.50, 894.71 278.45, 890.17 280.65 C 885.62 282.86, 882.63 284.65, 876.94 288.46 C 871.25 292.28, 867.74 294.83, 861.72 299.73 C 855.69 304.63, 852.29 307.59, 846.82 312.96 C 841.35 318.33, 838.54 321.37, 834.37 326.59 C 830.20 331.80, 828.33 334.47, 825.96 339.05 C 823.60 343.63, 822.73 345.78, 822.54 349.49 C 822.34 353.21, 822.92 355.09, 824.99 357.61 C 827.05 360.13, 828.95 360.95, 832.86 362.09 C 836.77 363.22, 839.38 363.25, 844.52 363.28 C 849.67 363.32, 852.89 362.86, 858.57 362.25 C 864.26 361.63, 867.70 360.91, 872.95 360.22 C 878.20 359.53, 881.07 359.17, 884.82 358.79 C 888.58 358.41, 890.07 358.37, 891.74 358.31 C 893.41 358.25, 893.48 358.11, 893.16 358.49 C 892.85 358.88, 891.64 359.17, 890.16 360.24 C 888.68 361.30, 887.09 362.20, 885.76 363.82 C 884.43 365.44, 884.01 366.76, 883.51 368.32 C 883.00 369.88, 883.01 370.84, 883.22 371.64 C 883.43 372.44, 883.82 372.54, 884.55 372.33 C 885.28 372.12, 885.71 371.50, 886.87 370.59 C 888.04 369.69, 888.99 369.29, 890.36 367.80 C 891.72 366.30, 892.77 364.98, 893.68 363.12 C 894.59 361.26, 895.21 360.00, 894.90 358.50 C 894.58 357.00, 894.19 356.20, 892.11 355.62 C 890.04 355.04, 888.42 355.21, 884.51 355.59 C 880.60 355.96, 877.81 356.71, 872.56 357.50 C 867.32 358.30, 863.89 358.99, 858.29 359.56 C 852.69 360.13, 849.48 360.46, 844.56 360.36 C 839.65 360.25, 837.16 360.00, 833.72 359.05 C 830.28 358.10, 829.04 357.48, 827.35 355.60 C 825.66 353.71, 825.14 352.73, 825.27 349.63 C 825.40 346.52, 825.88 344.44, 828.00 340.07 C 830.13 335.71, 831.89 332.96, 835.91 327.81 C 839.93 322.65, 842.71 319.59, 848.12 314.29 C 853.53 308.98, 856.93 306.04, 862.96 301.28 C 868.98 296.51, 872.55 294.06, 878.25 290.48 C 883.95 286.90, 887.10 285.37, 891.45 283.39 C 895.81 281.41, 897.81 281.12, 900.05 280.56 C 902.29 280.01, 902.66 279.69, 902.65 280.63 C 902.65 281.56, 902.13 282.53, 900.02 285.26 C 897.90 287.99, 896.25 290.17, 892.06 294.27 C 887.87 298.37, 884.96 300.93, 879.06 305.76 C 873.17 310.59, 869.53 313.39, 862.58 318.42 C 855.62 323.46, 851.56 326.20, 844.29 330.94 C 837.02 335.68, 833.09 338.14, 826.22 342.12 C 819.35 346.09, 815.83 348.01, 809.94 350.82 C 804.05 353.62, 801.19 354.73, 796.78 356.13 C 792.36 357.53, 790.41 357.45, 787.87 357.82 C 785.34 358.20, 784.74 358.40, 784.11 358.01 C 783.48 357.61, 783.81 357.10, 784.72 355.84 C 785.62 354.58, 787.08 353.72, 788.65 351.71 C 790.21 349.71, 791.44 348.00, 792.54 345.81 C 793.63 343.62, 794.24 342.16, 794.13 340.75 C 794.01 339.34, 793.70 338.68, 791.98 338.76 C 790.27 338.85, 788.76 339.56, 785.55 341.17 C 782.34 342.78, 780.06 344.57, 775.92 346.81 C 771.78 349.06, 769.17 350.45, 764.84 352.41 C 760.52 354.38, 758.04 355.34, 754.27 356.63 C 750.51 357.93, 748.52 358.11, 746.00 358.89 C 743.48 359.67, 742.61 360.33, 741.69 360.54 C 740.77 360.75, 740.71 360.76, 741.38 359.95 C 742.05 359.13, 742.82 358.40, 745.05 356.47 C 747.29 354.53, 748.90 352.84, 752.57 350.27 C 756.25 347.70, 759.00 346.07, 763.42 343.63 C 767.84 341.18, 770.78 339.90, 774.67 338.04 C 778.55 336.18, 780.79 335.58, 782.86 334.33 C 784.93 333.08, 785.48 332.12, 785.02 331.79 C 784.55 331.46, 783.41 331.52, 780.55 332.68 C 777.68 333.84, 775.39 335.38, 770.70 337.60 C 766.00 339.81, 762.95 341.26, 757.07 343.75 C 751.20 346.24, 747.67 347.76, 741.32 350.06 C 734.97 352.35, 731.42 353.63, 725.32 355.23 C 719.22 356.82, 716.01 357.52, 710.82 358.04 C 705.63 358.56, 703.07 358.53, 699.38 357.84 C 695.70 357.15, 694.33 356.53, 692.39 354.61 C 690.46 352.68, 689.90 351.54, 689.70 348.21 C 689.50 344.89, 689.71 342.67, 691.39 337.99 C 693.07 333.31, 694.52 330.41, 698.10 324.80 C 701.69 319.20, 704.25 315.88, 709.33 309.96 C 714.41 304.04, 717.64 300.70, 723.50 295.22 C 729.35 289.74, 732.79 286.90, 738.61 282.56 C 744.42 278.22, 747.62 276.24, 752.58 273.52 C 757.54 270.80, 760.10 270.06, 763.42 268.94 C 766.75 267.81, 767.91 267.62, 769.22 267.89 C 770.53 268.15, 770.55 268.39, 769.97 270.26 C 769.39 272.14, 768.83 273.72, 766.32 277.26 C 763.81 280.80, 761.91 283.22, 757.41 287.96 C 752.92 292.71, 749.92 295.59, 743.83 300.99 C 737.74 306.39, 733.99 309.47, 726.96 314.96 C 719.92 320.45, 715.95 323.44, 708.66 328.42 C 701.37 333.41, 697.42 335.95, 690.50 339.88 C 683.57 343.82, 680.01 345.63, 674.03 348.11 C 668.06 350.59, 665.22 351.43, 660.63 352.30 C 656.05 353.17, 653.99 353.05, 651.13 352.45 C 648.27 351.86, 647.45 351.35, 646.34 349.33 C 645.23 347.32, 644.95 345.97, 645.56 342.38 C 646.17 338.79, 646.90 336.29, 649.38 331.39 C 651.87 326.48, 653.83 323.39, 657.98 317.85 C 662.13 312.32, 664.92 309.13, 670.14 303.72 C 675.37 298.31, 678.60 295.37, 684.11 290.82 C 689.62 286.27, 692.79 284.06, 697.69 280.97 C 702.60 277.88, 705.20 276.87, 708.65 275.38 C 712.09 273.88, 713.44 273.60, 714.92 273.48 C 716.40 273.36, 716.46 273.37, 716.04 274.76 C 715.63 276.15, 715.06 277.41, 712.84 280.45 C 710.62 283.48, 709.02 285.71, 704.96 289.95 C 700.90 294.20, 698.13 296.75, 692.55 301.67 C 686.96 306.58, 683.52 309.40, 677.05 314.53 C 670.57 319.66, 666.90 322.46, 660.16 327.33 C 653.41 332.20, 649.73 334.76, 643.32 338.88 C 636.91 343.00, 633.63 344.98, 628.10 347.94 C 622.57 350.89, 619.87 352.09, 615.66 353.64 C 611.45 355.19, 609.59 355.23, 607.05 355.70 C 604.52 356.17, 603.87 356.30, 602.98 356.01 C 602.10 355.71, 602.09 355.37, 602.63 354.23 C 603.17 353.08, 604.26 352.28, 605.69 350.30 C 607.12 348.32, 608.45 346.73, 609.77 344.33 C 611.09 341.93, 611.99 340.21, 612.30 338.28 C 612.62 336.34, 612.60 335.35, 611.35 334.66 C 610.10 333.97, 608.85 333.83, 606.06 334.83 C 603.28 335.82, 601.36 337.55, 597.43 339.65 C 593.50 341.75, 590.76 343.38, 586.42 345.34 C 582.09 347.30, 579.64 348.29, 575.76 349.47 C 571.88 350.64, 569.89 350.82, 567.04 351.23 C 564.18 351.63, 563.07 351.75, 561.48 351.49 C 559.89 351.24, 559.39 351.02, 559.08 349.96 C 558.77 348.90, 559.03 348.15, 559.91 346.18 C 560.80 344.20, 561.59 342.76, 563.50 340.07 C 565.41 337.38, 567.07 335.50, 569.46 332.72 C 571.86 329.94, 573.87 328.43, 575.48 326.16 C 577.08 323.88, 577.64 322.43, 577.49 321.35 C 577.34 320.27, 576.68 319.84, 574.73 320.77 C 572.78 321.71, 571.24 323.35, 567.74 326.04 C 564.25 328.72, 561.70 330.96, 557.25 334.19 C 552.80 337.42, 550.12 339.33, 545.48 342.19 C 540.84 345.05, 538.31 346.53, 534.04 348.50 C 529.78 350.47, 527.55 351.22, 524.17 352.03 C 520.78 352.84, 519.32 352.86, 517.12 352.55 C 514.92 352.24, 514.18 352.03, 513.16 350.49 C 512.14 348.95, 511.85 347.88, 512.00 344.85 C 512.16 341.82, 512.45 339.68, 513.92 335.33 C 515.40 330.99, 516.67 328.27, 519.39 323.12 C 522.11 317.97, 523.98 314.95, 527.52 309.58 C 531.06 304.20, 533.29 301.11, 537.07 296.25 C 540.85 291.38, 543.11 288.84, 546.43 285.25 C 549.76 281.65, 551.69 280.37, 553.68 278.28 C 555.68 276.19, 556.12 275.26, 556.41 274.81 C 556.70 274.35, 556.16 274.53, 555.12 276.02 C 554.08 277.51, 553.30 279.13, 551.19 282.25 C 549.09 285.36, 547.83 287.53, 544.60 291.61 C 541.37 295.69, 539.27 298.04, 535.05 302.64 C 530.83 307.23, 528.31 309.83, 523.50 314.58 C 518.69 319.33, 516.03 321.93, 511.00 326.37 C 505.96 330.81, 503.20 333.05, 498.32 336.77 C 493.44 340.49, 490.91 342.29, 486.58 344.98 C 482.25 347.67, 480.10 348.72, 476.69 350.22 C 473.27 351.72, 471.69 351.86, 469.51 352.50 C 467.34 353.13, 466.72 353.39, 465.80 353.40 C 464.89 353.40, 464.79 353.27, 464.95 352.52 C 465.12 351.78, 465.49 351.17, 466.63 349.68 C 467.77 348.19, 468.67 347.11, 470.64 345.07 C 472.62 343.04, 473.90 341.67, 476.51 339.51 C 479.12 337.34, 480.76 336.12, 483.69 334.25 C 486.62 332.38, 488.39 331.63, 491.14 330.15 C 493.89 328.66, 495.46 328.17, 497.45 326.83 C 499.45 325.48, 500.30 324.62, 501.12 323.42 C 501.94 322.22, 502.15 321.47, 501.56 320.82 C 500.98 320.17, 500.31 319.82, 498.20 320.15 C 496.09 320.48, 494.60 321.13, 491.01 322.46 C 487.42 323.80, 485.09 324.84, 480.24 326.81 C 475.40 328.78, 472.39 330.03, 466.80 332.31 C 461.20 334.58, 458.00 335.99, 452.27 338.19 C 446.54 340.39, 443.44 341.62, 438.17 343.31 C 432.90 345.01, 430.16 345.82, 425.91 346.68 C 421.65 347.55, 419.70 347.55, 416.89 347.62 C 414.07 347.70, 413.09 347.65, 411.84 347.06 C 410.60 346.47, 410.45 346.03, 410.67 344.69 C 410.89 343.34, 411.62 342.39, 412.94 340.33 C 414.25 338.27, 415.54 336.75, 417.23 334.40 C 418.92 332.06, 420.28 330.55, 421.38 328.61 C 422.49 326.67, 422.92 325.55, 422.75 324.68 C 422.58 323.81, 422.09 323.52, 420.53 324.26 C 418.97 325.01, 417.69 326.26, 414.93 328.42 C 412.17 330.58, 410.23 332.54, 406.72 335.07 C 403.22 337.61, 401.07 339.01, 397.39 341.10 C 393.72 343.19, 391.68 344.21, 388.36 345.52 C 385.03 346.83, 383.29 347.02, 380.77 347.65 C 378.25 348.27, 377.26 348.56, 375.75 348.65 C 374.24 348.74, 373.77 348.65, 373.22 348.09 C 372.67 347.54, 372.60 347.09, 373.00 345.87 C 373.40 344.66, 373.90 343.81, 375.21 342.00 C 376.51 340.19, 377.44 338.96, 379.53 336.83 C 381.63 334.70, 383.00 333.39, 385.68 331.36 C 388.36 329.32, 390.05 328.24, 392.93 326.65 C 395.82 325.06, 397.43 324.44, 400.10 323.41 C 402.78 322.37, 404.18 322.18, 406.30 321.47 C 408.42 320.77, 409.40 320.54, 410.72 319.88 C 412.04 319.23, 412.54 318.73, 412.90 318.18 C 413.27 317.63, 413.21 317.19, 412.53 317.13 C 411.86 317.08, 411.30 317.19, 409.53 317.89 C 407.76 318.59, 406.57 319.24, 403.69 320.64 C 400.80 322.04, 399.02 323.08, 395.09 324.89 C 391.15 326.70, 388.78 327.72, 384.01 329.71 C 379.23 331.70, 376.52 332.82, 371.21 334.85 C 365.90 336.87, 363.02 337.96, 357.47 339.84 C 351.92 341.71, 348.93 342.62, 343.45 344.22 C 337.98 345.82, 335.16 346.60, 330.09 347.84 C 325.02 349.07, 322.51 349.59, 318.10 350.40 C 313.69 351.22, 311.56 351.36, 308.04 351.91 C 304.52 352.46, 302.95 352.44, 300.52 353.14 C 298.08 353.85, 297.13 354.34, 295.86 355.43 C 294.58 356.51, 294.21 357.30, 294.14 358.55 C 294.07 359.79, 294.47 360.59, 295.50 361.66 C 296.53 362.74, 297.42 363.16, 299.29 363.94 C 301.16 364.71, 302.41 365.05, 304.86 365.53 C 307.32 366.02, 308.83 366.25, 311.55 366.38 C 314.27 366.51, 315.85 366.58, 318.47 366.19 C 321.10 365.79, 322.51 365.44, 324.69 364.41 C 326.87 363.39, 327.87 362.68, 329.38 361.04 C 330.89 359.40, 331.45 358.40, 332.26 356.21 C 333.07 354.02, 333.26 352.76, 333.45 350.08 C 333.64 347.41, 333.41 345.93, 333.21 342.82 C 333.01 339.72, 332.70 338.02, 332.45 334.57 C 332.19 331.13, 332.00 329.27, 331.93 325.60 C 331.86 321.94, 331.83 320.02, 332.12 316.26 C 332.41 312.50, 332.65 310.53, 333.38 306.82 C 334.11 303.11, 334.59 301.18, 335.78 297.71 C 336.98 294.24, 337.75 292.43, 339.35 289.47 C 340.95 286.52, 342.18 285.22, 343.79 282.92 C 345.40 280.61, 346.35 279.62, 347.42 277.95 C 348.49 276.28, 348.85 275.47, 349.15 274.57 C 349.44 273.66, 349.42 273.30, 348.90 273.42 C 348.37 273.53, 347.97 273.86, 346.52 275.14 C 345.07 276.42, 344.21 277.60, 341.67 279.84 C 339.12 282.07, 337.50 283.64, 333.79 286.31 C 330.09 288.98, 327.80 290.50, 323.14 293.17 C 318.47 295.84, 315.77 297.22, 310.46 299.66 C 305.15 302.10, 302.20 303.31, 296.58 305.38 C 290.96 307.44, 287.95 308.42, 282.38 309.98 C 276.80 311.55, 273.92 312.28, 268.71 313.22 C 263.50 314.15, 260.86 314.40, 256.33 314.65 C 251.80 314.89, 249.58 314.68, 246.06 314.45 C 242.53 314.23, 241.06 313.65, 238.69 313.53 C 236.32 313.40, 235.46 313.58, 234.21 313.83 C 232.95 314.07, 232.82 314.28, 232.43 314.75 C 232.04 315.23, 232.00 315.65, 232.27 316.20" style="stroke: black; fill: black; --darkreader-inline-stroke: var(--darkreader-text-000000, #ffffff); --darkreader-inline-fill: var(--darkreader-text-000000, #ffffff);" data-darkreader-inline-stroke="" data-darkreader-inline-fill=""/><path d="M 916.18,363.43 C 917.20 363.67, 919.96 363.03, 920.78 362.37 C 921.59 361.71, 921.28 360.36, 920.26 360.12 C 919.23 359.88, 916.47 360.52, 915.66 361.18 C 914.84 361.84, 915.15 363.20, 916.18 363.43" style="stroke: black; fill: black; --darkreader-inline-stroke: var(--darkreader-text-000000, #ffffff); --darkreader-inline-fill: var(--darkreader-text-000000, #ffffff);" data-darkreader-inline-stroke="" data-darkreader-inline-fill=""/></g></svg>